<svg width="440" height="446" viewBox="0 0 440 446" fill="none" xmlns="http://www.w3.org/2000/svg">
<path fill-rule="evenodd" clip-rule="evenodd" d="M0 89.5C0 40.3466 39.3989 0.5 88 0.5H352C400.6 0.5 440 40.3466 440 89.5V356.5C440 405.652 400.6 445.5 352 445.5H88C39.3989 445.5 0 405.652 0 356.5V89.5ZM88 45C63.6995 45 44 64.9233 44 89.5V356.5C44 381.077 63.6995 401 88 401H352C376.301 401 396 381.077 396 356.5V89.5C396 64.9233 376.301 45 352 45H88ZM220 156.25C183.548 156.25 154 186.134 154 223C154 259.866 183.548 289.75 220 289.75C256.452 289.75 286 259.866 286 223C286 186.134 256.452 156.25 220 156.25ZM110 223C110 161.558 159.249 111.75 220 111.75C280.751 111.75 330 161.558 330 223C330 284.441 280.751 334.25 220 334.25C159.249 334.25 110 284.441 110 223ZM341 134C359.225 134 374 119.058 374 100.625C374 82.1924 359.225 67.25 341 67.25C322.775 67.25 308 82.1924 308 100.625C308 119.058 322.775 134 341 134Z" fill="#F3EBEB"/>
</svg>
